<?xml version="1.0" encoding="UTF-8"?>
<svg xmlns="http://www.w3.org/2000/svg" xmlns:xlink="http://www.w3.org/1999/xlink" width="261px" height="68px" viewBox="0 0 261 68" fill="none">
  <path d="M38.29 44.9C41.05 35.1 40.74 29.16 36.08 21.04C30.08 10.65 13.25 7.43001 5.08 3.04001C2.13 1.47001 1.21 0.270009 0.5 0.600009C2.83735 3.49998 5.52442 6.09971 8.5 8.34001C12.16 11 30 23.88 38.29 44.9Z" fill="#81BD41"></path>
  <path d="M38.82 63.32C40.54 58.12 38.5 52.55 37.47 49.74C31.2216 33.7617 21.212 19.5259 8.29001 8.24002L8.48001 8.38002C5.50443 6.13972 2.81736 3.53998 0.480011 0.640015C0.480011 0.640015 0.420011 0.640015 0.400011 0.720015C-0.109989 2.04001 2.28001 3.66001 3.83001 9.60001C6.83001 21.05 3.10001 32.7 26.59 43.41C36.44 47.9 37.85 54.66 36.26 59.81C36.9161 60.373 37.5005 61.0145 38 61.72C38.3332 62.227 38.621 62.7624 38.86 63.32" fill="#81BD41"></path>
  <path d="M189.45 50.52H196.45V24.28H189.45V50.52ZM189.35 16.52H196.49V11.14H189.35V16.52Z" fill="#323438"></path>
  <path d="M216.59 32.34C216.59 37.17 219.7 39.24 224.75 39.69L229.15 40.09C231.35 40.3 232.1 41.2 232.1 42.51C232.1 44.51 229.58 45.23 227.16 45.23C225.02 45.23 220.82 44.93 218.51 42.76L216.12 48.42C219.66 50.81 222.65 50.83 227.06 50.83C233.66 50.83 238.92 48.05 238.92 42.26C238.92 37.83 236.13 35.06 230.6 34.55L226.2 34.15C223.73 33.95 223.3 32.84 223.3 31.88C223.3 30.58 224.48 29.37 227.3 29.37C229.72 29.37 232.85 29.78 234.45 31.14L237 26.21C233.72 24.4 231.75 23.97 227.41 23.97C221.72 23.97 216.62 26.9 216.62 32.34" fill="#323438"></path>
  <path d="M242.72 15.24V25H239.72V30H242.72V43C242.72 46.73 245.13 50.5 250.82 50.5H254.63V45H252.11C251.786 45.0475 251.455 45.0193 251.144 44.9176C250.833 44.816 250.549 44.6436 250.316 44.414C250.082 44.1844 249.905 43.9038 249.798 43.5943C249.692 43.2848 249.658 42.9547 249.7 42.63V30H254.63V25H249.7V15.24H242.72Z" fill="#323438"></path>
  <path d="M215.42 24C212.806 23.9778 210.289 24.9917 208.42 26.82V24.28H201.59V50.52H208.59V34.71C208.59 31.38 210.92 29.78 213.07 29.78C213.813 29.796 214.555 29.8595 215.29 29.97L216.9 23.97C216.66 23.97 216.41 23.97 216.14 23.97H215.45" fill="#323438"></path>
  <path d="M182.16 11.1C176.46 11.1 173.99 14.88 173.99 18.61V25H171.2C171.2 26.93 171.2 28.6 171.2 29.7V30H174V50.5H181V30H186.16V25H181V19C180.96 18.6747 180.995 18.3445 181.103 18.0351C181.211 17.7257 181.389 17.4454 181.623 17.2161C181.858 16.9868 182.142 16.8146 182.453 16.7129C182.765 16.6113 183.096 16.5829 183.42 16.63H186.16V11.1H182.16Z" fill="#323438"></path>
  <path d="M51 50.52V33.78C51 29.15 53.48 26.68 58.11 26.64C62.74 26.6 65.02 29.09 65.11 33.78V50.52H68.48V33.31C68.5386 32.0225 68.3318 30.7367 67.8725 29.5325C67.4132 28.3283 66.7111 27.2314 65.81 26.31C63.7999 24.53 61.1712 23.6107 58.49 23.75C57.1249 23.6963 55.7629 23.9173 54.4848 24.4C53.2068 24.8827 52.0387 25.6173 51.05 26.56V10.76H47.67V50.52H51Z" fill="#323438"></path>
  <path d="M114.79 50.52H118.15V32.28C118.222 31.1064 118.027 29.9318 117.58 28.8442C117.133 27.7565 116.446 26.7842 115.57 26C113.82 24.53 111.2 23.79 107.68 23.79C103.35 23.79 100.46 24.7 98.18 27.79L98 28.02L100.48 30L100.67 29.75C102.32 27.52 104.01 26.75 107.67 26.69C113 26.75 114.73 28.69 114.78 32.54V35.25H106.58C104.118 35.1234 101.684 35.8277 99.67 37.25C98.8385 37.9178 98.1754 38.7716 97.7342 39.7425C97.2931 40.7134 97.0861 41.7744 97.13 42.84C97.0798 44.8448 97.7949 46.7935 99.13 48.29C100.89 50.03 103.13 50.68 107.13 50.67C110.58 50.67 112.73 50.06 114.84 48.23L114.79 50.52ZM113.42 45.83C111.6 47.48 109.47 47.68 107.08 47.68C102.32 47.68 100.54 45.91 100.51 42.75C100.48 39.59 102.51 38.04 106.92 38H114.79V40.93C114.79 43.19 114.3 45.05 113.42 45.83" fill="#323438"></path>
  <path d="M150.71 50.52V33.7C150.71 29.08 153.2 26.6 157.81 26.57C162.42 26.54 164.73 29.01 164.76 33.7V50.52H168.14V33.24C168.194 31.953 167.985 30.6686 167.526 29.465C167.067 28.2615 166.367 27.1642 165.47 26.24C163.373 24.5389 160.743 23.6323 158.043 23.6799C155.343 23.7275 152.746 24.7261 150.71 26.5V10.77H147.33V50.52H150.71Z" fill="#323438"></path>
  <path d="M143 47.63H141.68C139.02 47.63 137.99 46.34 137.94 43.8V27.31H143.88V24.76H137.9V13.24H134.54V24.76H130.93V27.31H134.54V43.75C134.469 45.5297 135.069 47.2712 136.22 48.63C136.857 49.2814 137.625 49.7902 138.473 50.1229C139.321 50.4556 140.23 50.6046 141.14 50.56H143V47.63Z" fill="#323438"></path>
  <path d="M90.83 44.78H90.77C89.9088 45.7049 88.8581 46.4329 87.6897 46.9144C86.5213 47.396 85.2627 47.6196 84 47.57C78.62 47.57 75.87 44.33 75.75 38.08H94V36.55C94 32.55 93 29.35 91.15 27.14C90.1583 26.0078 88.9239 25.114 87.5387 24.5253C86.1536 23.9366 84.6534 23.6682 83.15 23.74C81.6301 23.6674 80.1145 23.9526 78.725 24.5726C77.3355 25.1927 76.111 26.1303 75.15 27.31C73.29 29.62 72.3 32.99 72.3 37.19C72.3 41.39 73.3 44.88 75.24 47.19C77.18 49.5 80.08 50.65 83.77 50.65C85.421 50.7352 87.0719 50.4799 88.6202 49.9002C90.1684 49.3205 91.5809 48.4286 92.77 47.28L90.83 44.78ZM76.63 30.86C77.2214 29.6288 78.1487 28.5898 79.3048 27.8626C80.461 27.1353 81.7991 26.7495 83.165 26.7495C84.5309 26.7495 85.8689 27.1353 87.0251 27.8626C88.1813 28.5898 89.1085 29.6288 89.7 30.86C90.3117 32.2481 90.6121 33.7534 90.58 35.27H75.74C75.7721 33.7555 76.0735 32.2589 76.63 30.85" fill="#323438"></path>
  <path d="M127.47 10.77H124.09V50.53H127.47V10.77Z" fill="#323438"></path>
  <path d="M258.24 14C258.694 14.0061 259.141 14.1228 259.54 14.34C259.967 14.5638 260.316 14.9127 260.54 15.34C260.772 15.7411 260.893 16.1967 260.89 16.66C260.89 17.1185 260.773 17.5693 260.55 17.97C260.324 18.3958 259.976 18.7442 259.55 18.97C259.153 19.2028 258.7 19.3237 258.24 19.32C257.78 19.3213 257.328 19.2005 256.93 18.97C256.506 18.7413 256.159 18.3937 255.93 17.97C255.704 17.57 255.584 17.1193 255.58 16.66C255.581 16.1959 255.705 15.7403 255.94 15.34C256.164 14.9127 256.513 14.5638 256.94 14.34C257.34 14.1239 257.786 14.0073 258.24 14V14ZM258.24 14.44C257.862 14.4403 257.49 14.5367 257.16 14.72C256.812 14.9064 256.526 15.1917 256.34 15.54C256.145 15.8737 256.041 16.2533 256.04 16.64C256.043 17.0221 256.142 17.3972 256.33 17.73C256.521 18.0725 256.805 18.3535 257.15 18.54C257.481 18.7319 257.857 18.8321 258.24 18.83C258.623 18.8335 259 18.7333 259.33 18.54C259.675 18.3535 259.959 18.0725 260.15 17.73C260.338 17.3972 260.437 17.0221 260.44 16.64C260.439 16.2533 260.335 15.8737 260.14 15.54C259.954 15.1917 259.668 14.9064 259.32 14.72C258.99 14.5367 258.618 14.4403 258.24 14.44V14.44ZM257.09 18.09V15.23H258.09C258.333 15.2157 258.576 15.2428 258.81 15.31C258.957 15.3572 259.084 15.4523 259.17 15.58C259.256 15.703 259.302 15.8499 259.3 16C259.301 16.1001 259.282 16.1995 259.245 16.2923C259.207 16.385 259.151 16.4692 259.08 16.54C258.922 16.6966 258.712 16.7892 258.49 16.8C258.579 16.8331 258.661 16.8842 258.73 16.95C258.89 17.1207 259.031 17.3085 259.15 17.51L259.5 18.06H258.94L258.69 17.62C258.569 17.3741 258.407 17.1509 258.21 16.96C258.102 16.8857 257.971 16.8504 257.84 16.86H257.57V18.06L257.09 18.09ZM257.54 16.5H258.1C258.288 16.5198 258.478 16.4777 258.64 16.38C258.686 16.3433 258.723 16.296 258.748 16.242C258.772 16.1881 258.783 16.1291 258.78 16.07C258.781 15.9893 258.761 15.9097 258.72 15.84C258.672 15.7689 258.602 15.716 258.52 15.69C258.368 15.6659 258.212 15.6659 258.06 15.69H257.54V16.5Z" fill="#323438"></path>
  <path d="M249.5 66.36C250.249 67.0361 251.232 67.3947 252.24 67.36C253.81 67.36 254.84 66.47 254.84 65.27C254.84 62.91 251.14 63.2 251.14 61.9C251.14 61.28 251.72 61.02 252.32 61.02C252.972 61.0062 253.606 61.2341 254.1 61.66L254.65 60.66C254.012 60.1055 253.184 59.8221 252.34 59.87C250.9 59.87 249.73 60.6 249.73 61.87C249.73 64.22 253.43 63.95 253.43 65.27C253.43 65.86 252.83 66.17 252.24 66.17C251.469 66.1579 250.731 65.8584 250.17 65.33L249.5 66.36ZM244.75 67.24H246.13V64.3C246.126 63.8609 246.183 63.4234 246.3 63C246.407 62.5405 246.659 62.1277 247.02 61.8232C247.38 61.5187 247.829 61.3387 248.3 61.31C248.433 61.297 248.567 61.297 248.7 61.31V60C248.584 59.9911 248.467 59.9911 248.35 60C247.818 60.0257 247.309 60.2226 246.898 60.5614C246.487 60.9002 246.197 61.3627 246.07 61.88C246.08 61.7001 246.08 61.5199 246.07 61.34V60.05H244.73L244.75 67.24ZM237.83 62.8C237.887 62.2875 238.135 61.8151 238.524 61.4763C238.913 61.1374 239.414 60.9568 239.93 60.97C240.168 60.9637 240.405 61.0074 240.625 61.0984C240.845 61.1893 241.043 61.3255 241.207 61.498C241.371 61.6705 241.497 61.8756 241.577 62.0998C241.657 62.3241 241.688 62.5627 241.67 62.8H237.83ZM236.36 63.64C236.344 64.1436 236.433 64.645 236.62 65.1128C236.807 65.5805 237.089 66.0047 237.447 66.3586C237.806 66.7125 238.234 66.9885 238.704 67.1695C239.174 67.3504 239.677 67.4323 240.18 67.41C241.196 67.419 242.182 67.0643 242.96 66.41L242.39 65.41C241.798 65.9271 241.046 66.2239 240.26 66.25C239.939 66.2665 239.618 66.2168 239.317 66.1042C239.016 65.9916 238.741 65.8184 238.509 65.5953C238.278 65.3722 238.094 65.104 237.971 64.8072C237.847 64.5105 237.785 64.1915 237.79 63.87H243C243 63.87 243.05 63.46 243.05 63.28C243.098 62.8514 243.055 62.4175 242.923 62.0067C242.792 61.596 242.575 61.2177 242.287 60.8967C241.999 60.5756 241.646 60.3191 241.252 60.1439C240.858 59.9687 240.431 59.8787 240 59.88C239.51 59.8677 239.023 59.9578 238.57 60.1446C238.117 60.3314 237.708 60.6106 237.369 60.9646C237.03 61.3185 236.769 61.7393 236.602 62.2C236.435 62.6607 236.366 63.1512 236.4 63.64H236.36ZM229.82 67.24H231.2V63.86H232.2L234.36 67.24H236L233.34 63.24L235.73 60.07H234.16L232.16 62.71H231.16V57.2H229.78L229.82 67.24ZM224.77 67.24H226.15V64.3C226.141 63.8606 226.198 63.4224 226.32 63C226.361 62.7283 226.458 62.468 226.604 62.2354C226.751 62.0027 226.944 61.8028 227.171 61.6479C227.398 61.4931 227.654 61.3867 227.924 61.3355C228.194 61.2842 228.472 61.2892 228.74 61.35V60C228.62 59.9907 228.5 59.9907 228.38 60C227.849 60.0246 227.34 60.2213 226.931 60.5605C226.521 60.8996 226.233 61.3628 226.11 61.88V61.88C226.12 61.7001 226.12 61.5199 226.11 61.34V60.05H224.77V67.24ZM217.35 63.63C217.372 63.1443 217.535 62.6757 217.821 62.2824C218.107 61.8891 218.502 61.5885 218.957 61.4178C219.412 61.2472 219.908 61.2141 220.381 61.3226C220.855 61.4312 221.287 61.6767 221.622 62.0285C221.958 62.3803 222.182 62.8229 222.268 63.3014C222.354 63.7798 222.298 64.273 222.106 64.7196C221.914 65.1662 221.595 65.5465 221.188 65.8133C220.782 66.0801 220.306 66.2215 219.82 66.22C219.486 66.219 219.155 66.1504 218.848 66.0183C218.541 65.8863 218.264 65.6935 218.033 65.4516C217.802 65.2096 217.623 64.9236 217.505 64.6105C217.388 64.2975 217.335 63.964 217.35 63.63ZM215.94 63.63C215.914 64.4024 216.119 65.1649 216.53 65.8199C216.94 66.4748 217.537 66.9923 218.243 67.306C218.949 67.6197 219.733 67.7153 220.494 67.5806C221.255 67.4459 221.959 67.087 222.514 66.5499C223.07 66.0128 223.453 65.322 223.613 64.566C223.774 63.8101 223.705 63.0234 223.415 62.3068C223.126 61.5902 222.629 60.9764 221.988 60.544C221.348 60.1117 220.593 59.8804 219.82 59.88C219.317 59.8639 218.816 59.949 218.347 60.1301C217.877 60.3112 217.449 60.5848 217.087 60.9345C216.725 61.2842 216.437 61.7029 216.24 62.1659C216.043 62.629 215.941 63.1268 215.94 63.63V63.63ZM212.16 67.24H213.56V63L216.92 57.21H215.33L213.49 60.51C213.18 61.08 212.88 61.78 212.88 61.78C212.88 61.78 212.58 61.07 212.27 60.51L210.41 57.21H208.81L212.12 63L212.16 67.24ZM197.16 67.24H198.69L200.17 62.62C200.25 62.3637 200.317 62.1033 200.37 61.84V61.84C200.37 61.84 200.46 62.25 200.57 62.62L202 67.24H203.52L205.84 60.05H204.39L202.88 65.05C202.808 65.303 202.751 65.5601 202.71 65.82V65.82C202.71 65.82 202.63 65.42 202.52 65.05L200.97 60.05H199.7L198.14 65.05C198.061 65.3026 197.998 65.5597 197.95 65.82V65.82C197.95 65.82 197.88 65.42 197.77 65.05L196.27 60.05H194.81L197.16 67.24ZM189 62.8C189.057 62.2875 189.305 61.8151 189.694 61.4763C190.083 61.1374 190.584 60.9568 191.1 60.97C191.338 60.9637 191.575 61.0074 191.795 61.0984C192.015 61.1893 192.213 61.3255 192.377 61.498C192.541 61.6705 192.667 61.8756 192.747 62.0998C192.827 62.3241 192.858 62.5627 192.84 62.8H189ZM187.53 63.64C187.514 64.1427 187.603 64.6432 187.789 65.1103C187.976 65.5774 188.256 66.001 188.614 66.3548C188.971 66.7085 189.398 66.9848 189.867 67.1664C190.336 67.3479 190.837 67.4309 191.34 67.41C192.359 67.417 193.347 67.0627 194.13 66.41L193.56 65.41C192.968 65.9271 192.216 66.2239 191.43 66.25C191.108 66.2664 190.787 66.2168 190.485 66.1043C190.184 65.9918 189.908 65.8187 189.676 65.5958C189.443 65.3729 189.259 65.1048 189.134 64.808C189.01 64.5112 188.947 64.192 188.95 63.87H194.2C194.2 63.87 194.2 63.46 194.2 63.28C194.244 62.8486 194.196 62.4129 194.059 62.0015C193.922 61.5902 193.699 61.2127 193.405 60.894C193.111 60.5754 192.752 60.3229 192.353 60.1532C191.954 59.9836 191.523 59.9007 191.09 59.91C190.6 59.8977 190.113 59.9878 189.66 60.1746C189.207 60.3614 188.798 60.6406 188.459 60.9946C188.12 61.3485 187.859 61.7693 187.692 62.23C187.525 62.6907 187.456 63.1812 187.49 63.67L187.53 63.64ZM178.08 67.27H179.48V60.73C179.48 60.16 179.39 59.26 179.39 59.26C179.39 59.26 179.86 60.17 180.23 60.73L184.71 67.24H186.09V57.24H184.68V63.77C184.68 64.32 184.78 65.22 184.78 65.22C184.78 65.22 184.31 64.31 183.94 63.77L179.47 57.24H178.1L178.08 67.27ZM169.94 67.27H171.32V64.3C171.311 63.8606 171.368 63.4224 171.49 63C171.531 62.7283 171.628 62.468 171.774 62.2354C171.921 62.0027 172.114 61.8028 172.341 61.6479C172.568 61.4931 172.824 61.3867 173.094 61.3355C173.364 61.2842 173.642 61.2892 173.91 61.35V60C173.79 59.9907 173.67 59.9907 173.55 60C173.019 60.0262 172.511 60.2235 172.102 60.5624C171.693 60.9013 171.405 61.3635 171.28 61.88V61.88C171.29 61.7001 171.29 61.5199 171.28 61.34V60.05H170L169.94 67.27ZM162.23 63.66C162.252 63.1748 162.415 62.7065 162.7 62.3134C162.986 61.9203 163.38 61.6196 163.835 61.4487C164.289 61.2777 164.784 61.244 165.258 61.3518C165.731 61.4596 166.163 61.704 166.499 62.0548C166.835 62.4056 167.06 62.8474 167.147 63.3252C167.234 63.803 167.179 64.2959 166.989 64.7427C166.798 65.1895 166.481 65.5705 166.076 65.8385C165.671 66.1064 165.196 66.2495 164.71 66.25C164.375 66.2489 164.044 66.1804 163.737 66.0484C163.429 65.9165 163.151 65.7239 162.92 65.4821C162.688 65.2403 162.508 64.9544 162.389 64.6413C162.271 64.3282 162.217 63.9945 162.23 63.66V63.66ZM160.83 63.66C160.804 64.4324 161.009 65.1949 161.42 65.8499C161.83 66.5048 162.427 67.0223 163.133 67.336C163.839 67.6497 164.623 67.7453 165.384 67.6106C166.145 67.4759 166.849 67.117 167.404 66.5799C167.96 66.0428 168.343 65.352 168.503 64.596C168.664 63.8401 168.595 63.0534 168.305 62.3368C168.016 61.6202 167.519 61.0064 166.879 60.574C166.238 60.1417 165.483 59.9104 164.71 59.91C164.207 59.8939 163.706 59.979 163.237 60.1601C162.767 60.3412 162.339 60.6148 161.977 60.9645C161.615 61.3142 161.327 61.7329 161.13 62.1959C160.933 62.659 160.831 63.1568 160.83 63.66V63.66ZM157.24 67.27H158.61V61.27H160.31V60.17H158.61V59.85C158.588 59.6472 158.612 59.4421 158.679 59.2497C158.747 59.0572 158.856 58.8822 159 58.7375C159.144 58.5928 159.318 58.4821 159.51 58.4133C159.702 58.3445 159.907 58.3195 160.11 58.34C160.23 58.3285 160.35 58.3285 160.47 58.34V57.17C160.294 57.155 160.116 57.155 159.94 57.17C159.579 57.1312 159.213 57.1734 158.87 57.2934C158.527 57.4135 158.215 57.6084 157.956 57.864C157.698 58.1196 157.499 58.4295 157.375 58.7713C157.252 59.1131 157.205 59.4781 157.24 59.84V60.19H156.35V61.29H157.24V67.27ZM147.15 62.8C147.214 62.2911 147.466 61.8246 147.857 61.4917C148.247 61.1588 148.747 60.9835 149.26 61C149.495 60.9941 149.729 61.037 149.947 61.1262C150.165 61.2153 150.362 61.3487 150.525 61.5179C150.689 61.6871 150.815 61.8884 150.897 62.1091C150.979 62.3298 151.014 62.5651 151 62.8H147.15ZM145.69 63.64C145.674 64.1427 145.763 64.6432 145.949 65.1103C146.136 65.5774 146.416 66.001 146.774 66.3548C147.131 66.7085 147.558 66.9848 148.027 67.1664C148.496 67.3479 148.997 67.4309 149.5 67.41C150.516 67.419 151.502 67.0643 152.28 66.41L151.72 65.41C151.124 65.9264 150.368 66.2229 149.58 66.25C149.259 66.2665 148.938 66.2168 148.637 66.1042C148.336 65.9916 148.061 65.8184 147.829 65.5953C147.598 65.3722 147.414 65.104 147.291 64.8072C147.167 64.5105 147.105 64.1915 147.11 63.87H152.36C152.36 63.87 152.36 63.46 152.36 63.28C152.404 62.8478 152.356 62.4111 152.218 61.9991C152.08 61.587 151.856 61.209 151.561 60.8902C151.266 60.5714 150.906 60.3191 150.506 60.1501C150.106 59.9811 149.674 59.8992 149.24 59.91C148.751 59.8991 148.265 59.9903 147.813 60.1777C147.361 60.3651 146.954 60.6446 146.616 60.9983C146.278 61.3521 146.018 61.7724 145.851 62.2324C145.685 62.6924 145.617 63.182 145.65 63.67L145.69 63.64ZM138.14 63.67C138.131 64.1738 138.226 64.6741 138.418 65.1398C138.611 65.6055 138.897 66.0267 139.259 66.3773C139.621 66.728 140.051 67.0006 140.522 67.1782C140.994 67.3558 141.497 67.4347 142 67.41C142.531 67.4223 143.06 67.3268 143.553 67.1291C144.046 66.9314 144.494 66.6358 144.87 66.26L144.32 65.26C143.738 65.8684 142.942 66.2269 142.1 66.26C141.76 66.267 141.422 66.2045 141.107 66.0763C140.791 65.9482 140.506 65.757 140.267 65.5145C140.028 65.272 139.841 64.9834 139.718 64.6662C139.595 64.349 139.538 64.01 139.55 63.67C139.536 63.3344 139.591 62.9995 139.712 62.686C139.833 62.3725 140.016 62.0871 140.251 61.8472C140.487 61.6074 140.768 61.4182 141.079 61.2914C141.39 61.1646 141.724 61.1029 142.06 61.11C142.807 61.1184 143.522 61.4118 144.06 61.93L144.71 60.93C144.356 60.579 143.934 60.3046 143.469 60.124C143.005 59.9433 142.508 59.8603 142.01 59.88C141.506 59.858 141.003 59.9396 140.532 60.1196C140.061 60.2996 139.632 60.5742 139.271 60.9266C138.91 61.279 138.626 61.7015 138.434 62.1682C138.243 62.6349 138.15 63.1358 138.16 63.64L138.14 63.67ZM130.38 67.24H131.76V63.87C131.746 63.533 131.783 63.1958 131.87 62.87C132.002 62.3661 132.298 61.9202 132.71 61.6018C133.123 61.2835 133.629 61.1105 134.15 61.11C135.3 61.11 135.51 61.91 135.51 62.92V67.21H136.89V62.63C136.89 60.8 136.11 59.88 134.42 59.88C133.86 59.8733 133.31 60.0234 132.831 60.3132C132.352 60.603 131.964 61.021 131.71 61.52C131.72 61.3468 131.72 61.1732 131.71 61V60H130.4L130.38 67.24ZM124 65.15C124 63.86 125.88 63.79 126.92 63.79H127.27V64C127.302 64.5545 127.121 65.1002 126.764 65.5258C126.407 65.9513 125.902 66.2247 125.35 66.29C125.185 66.3094 125.019 66.2948 124.86 66.2471C124.701 66.1994 124.554 66.1197 124.428 66.0128C124.301 65.9059 124.198 65.7742 124.124 65.6258C124.051 65.4774 124.008 65.3154 124 65.15ZM122.61 65.22C122.617 65.5226 122.686 65.8205 122.811 66.096C122.937 66.3715 123.116 66.6188 123.339 66.8233C123.562 67.0277 123.824 67.1851 124.11 67.2859C124.395 67.3867 124.698 67.4289 125 67.41C125.485 67.4286 125.965 67.3051 126.381 67.0546C126.796 66.8041 127.13 66.4375 127.34 66V66C127.329 66.1899 127.329 66.3801 127.34 66.57V67.25H128.62V62.69C128.66 62.3076 128.614 61.9211 128.484 61.5591C128.355 61.1971 128.145 60.8689 127.871 60.5989C127.598 60.329 127.267 60.1242 126.903 59.9997C126.539 59.8752 126.152 59.8343 125.77 59.88C124.809 59.8684 123.869 60.1664 123.09 60.73L123.66 61.73C124.242 61.3019 124.938 61.058 125.66 61.03C125.874 61.0001 126.093 61.0203 126.298 61.0892C126.504 61.158 126.69 61.2735 126.843 61.4266C126.996 61.5798 127.112 61.7663 127.181 61.9717C127.25 62.177 127.27 62.3955 127.24 62.61V62.74H126.93C125.72 62.74 122.59 62.84 122.59 65.21L122.61 65.22ZM118.12 67.21H119.5V64.3C119.496 63.8609 119.553 63.4234 119.67 63C119.777 62.5405 120.029 62.1277 120.39 61.8232C120.75 61.5187 121.199 61.3387 121.67 61.31C121.803 61.297 121.937 61.297 122.07 61.31V60C121.95 59.9907 121.83 59.9907 121.71 60C121.18 60.0278 120.673 60.2257 120.264 60.5643C119.855 60.9029 119.566 61.3643 119.44 61.88V61.88C119.45 61.7001 119.45 61.5199 119.44 61.34V60.05H118.1L118.12 67.21ZM109.8 64.62C109.8 66.53 110.64 67.38 112.26 67.38C112.813 67.3851 113.356 67.2326 113.825 66.9404C114.294 66.6482 114.671 66.2284 114.91 65.73V65.73C114.9 65.9065 114.9 66.0835 114.91 66.26V67.21H116.25V60.05H114.87V63.42C114.901 63.753 114.865 64.0889 114.764 64.4076C114.662 64.7262 114.497 65.021 114.278 65.2742C114.059 65.5273 113.792 65.7337 113.491 65.8807C113.191 66.0278 112.864 66.1126 112.53 66.13C111.38 66.13 111.18 65.34 111.18 64.34V60.05H109.8V64.62ZM103.23 66.33C103.976 67.0046 104.955 67.3631 105.96 67.33C107.54 67.33 108.57 66.44 108.57 65.24C108.57 62.88 104.87 63.17 104.87 61.87C104.87 61.25 105.45 60.99 106.05 60.99C106.702 60.9762 107.336 61.2041 107.83 61.63L108.38 60.63C107.739 60.074 106.907 59.7905 106.06 59.84C104.63 59.84 103.46 60.57 103.46 61.84C103.46 64.19 107.16 63.92 107.16 65.24C107.16 65.83 106.56 66.14 105.96 66.14C105.193 66.1264 104.458 65.8269 103.9 65.3L103.23 66.33ZM95.52 67.21H96.9V63.87C96.8887 63.5325 96.9292 63.1953 97.02 62.87C97.152 62.3678 97.446 61.9231 97.8564 61.6049C98.2668 61.2867 98.7707 61.1127 99.29 61.11C100.44 61.11 100.66 61.91 100.66 62.92V67.21H102V62.63C102 60.8 101.22 59.88 99.52 59.88C98.9605 59.8681 98.4093 60.016 97.931 60.3066C97.4527 60.5971 97.0673 61.018 96.82 61.52C96.8296 61.3468 96.8296 61.1732 96.82 61V60H95.48L95.52 67.21ZM92.24 67.21H93.65V57.21H92.24V67.21ZM81.15 67.21H82.53V63.87C82.5134 63.5329 82.5505 63.1954 82.64 62.87C82.7713 62.3657 83.0645 61.9185 83.4746 61.5969C83.8847 61.2753 84.3889 61.0973 84.91 61.09C86.07 61.09 86.28 61.89 86.28 62.9V67.19H87.66V62.63C87.66 60.8 86.88 59.88 85.19 59.88C84.6408 59.8684 84.0996 60.0126 83.6288 60.2957C83.1581 60.5788 82.7772 60.9894 82.53 61.48V61.48C82.5406 61.2835 82.5406 61.0865 82.53 60.89V57.2H81.15V67.21ZM76.64 64.58C76.6062 64.9478 76.6549 65.3185 76.7827 65.6651C76.9105 66.0116 77.1141 66.3253 77.3786 66.5831C77.6431 66.8409 77.9619 67.0363 78.3116 67.1552C78.6613 67.274 79.0332 67.3133 79.4 67.27C79.5598 67.2807 79.7202 67.2807 79.88 67.27V66.05C79.7703 66.0612 79.6597 66.0612 79.55 66.05C79.3372 66.0696 79.1227 66.0412 78.9223 65.9669C78.7219 65.8927 78.5407 65.7745 78.392 65.621C78.2433 65.4675 78.1309 65.2826 78.0631 65.08C77.9953 64.8774 77.9737 64.6621 78 64.45V61.25H79.73V60.15H78V58.07H76.68V60.15H75.68V61.25H76.62L76.64 64.58ZM72.77 65.25C72.77 67.06 73.92 67.25 74.7 67.25C74.8532 67.2597 75.0068 67.2597 75.16 67.25V66.05H74.92C74.49 66.05 74.15 65.9 74.15 65.05V57.2H72.77V65.25ZM66.44 65.12C66.44 63.83 68.32 63.76 69.36 63.76H69.71V64C69.7419 64.5545 69.5609 65.1002 69.2041 65.5258C68.8473 65.9513 68.3415 66.2247 67.79 66.29C67.6247 66.3094 67.4571 66.2945 67.2979 66.2462C67.1386 66.1979 66.9909 66.1173 66.8642 66.0094C66.7375 65.9014 66.6345 65.7685 66.5615 65.6189C66.4885 65.4693 66.4471 65.3063 66.44 65.14V65.12ZM65.05 65.21C65.0571 65.5171 65.127 65.8195 65.2554 66.0985C65.3837 66.3776 65.5679 66.6274 65.7965 66.8325C66.0251 67.0377 66.2933 67.1939 66.5845 67.2915C66.8758 67.3891 67.1839 67.426 67.49 67.4C67.9687 67.4124 68.4408 67.287 68.8503 67.0388C69.2598 66.7906 69.5895 66.4301 69.8 66V66C69.7893 66.1899 69.7893 66.3801 69.8 66.57V67.25H71.08V62.69C71.1203 62.3076 71.0739 61.9211 70.9443 61.5591C70.8147 61.1971 70.6052 60.8689 70.3314 60.5989C70.0576 60.329 69.7265 60.1242 69.3627 59.9997C68.9989 59.8752 68.6118 59.8343 68.23 59.88C67.2657 59.8698 66.3233 60.1676 65.54 60.73L66.11 61.73C66.6931 61.3046 67.3889 61.061 68.11 61.03C68.3245 61.0001 68.543 61.0203 68.7483 61.0892C68.9537 61.158 69.1402 61.2735 69.2934 61.4266C69.4465 61.5798 69.562 61.7663 69.6308 61.9717C69.6997 62.177 69.7199 62.3955 69.69 62.61V62.74H69.37C68.17 62.74 65.04 62.84 65.04 65.21H65.05ZM59 62.8C59.0642 62.2947 59.3133 61.831 59.6993 61.4986C60.0853 61.1661 60.5807 60.9885 61.09 61C61.328 60.9937 61.5646 61.0374 61.7846 61.1284C62.0046 61.2194 62.203 61.3555 62.367 61.528C62.531 61.7005 62.657 61.9056 62.7368 62.1298C62.8165 62.3541 62.8483 62.5927 62.83 62.83L59 62.8ZM57.53 63.64C57.5144 64.1427 57.6027 64.6432 57.7892 65.1103C57.9757 65.5774 58.2564 66.001 58.6139 66.3548C58.9714 66.7085 59.398 66.9848 59.867 67.1664C60.3361 67.3479 60.8375 67.4309 61.34 67.41C62.3596 67.4205 63.3492 67.0658 64.13 66.41L63.56 65.41C62.968 65.9271 62.2156 66.2239 61.43 66.25C61.1096 66.261 60.7903 66.2064 60.4919 66.0894C60.1934 65.9725 59.922 65.7957 59.6944 65.5699C59.4667 65.3442 59.2877 65.0743 59.1683 64.7768C59.0489 64.4793 58.9916 64.1605 59 63.84H64.24C64.24 63.84 64.24 63.43 64.24 63.25C64.2841 62.8178 64.2357 62.3811 64.098 61.9691C63.9603 61.557 63.7364 61.179 63.4413 60.8602C63.1461 60.5414 62.7864 60.2891 62.3862 60.1201C61.986 59.9511 61.5543 59.8692 61.12 59.88C60.6301 59.8677 60.1431 59.9578 59.6901 60.1446C59.2371 60.3314 58.8281 60.6106 58.4892 60.9646C58.1503 61.3185 57.8891 61.7393 57.7222 62.2C57.5553 62.6607 57.4864 63.1512 57.52 63.64H57.53ZM48.12 67.24H49.53V62.83H54.74V67.24H56.14V57.24H54.74V61.65H49.53V57.2H48.12V67.24Z" fill="#323438"></path>
</svg>
